<svg width="108" height="56" viewBox="0 0 108 56" fill="none" xmlns="http://www.w3.org/2000/svg">
<path d="M1.44891 20.1464C9.62172 18.1901 18.0087 17.1935 26.4313 17.1197C30.6426 17.0828 34.8539 17.3042 39.0296 17.7472C42.991 18.1532 46.9525 18.7438 50.807 19.7034C54.4116 20.5893 57.9448 21.8812 61.0854 23.9482C63.9762 25.8676 66.3317 28.4513 67.8664 31.6626C69.2939 34.6524 69.8293 38.159 68.9013 41.3702C68.0091 44.5446 65.7964 47.2021 63.1911 49.0846C60.1218 51.2624 56.5529 52.3697 52.9126 52.8864C48.9154 53.477 44.7755 53.477 40.7783 53.2925C37.0309 53.1448 33.1765 52.5542 29.8931 50.5611C27.1451 48.9001 24.861 46.3163 24.1829 43.0312C22.7553 36.2396 28.644 30.5184 33.6405 27.2702C36.7454 25.2401 40.1359 23.6898 43.5621 22.2872C47.131 20.8477 50.7713 19.6296 54.4473 18.633C61.9063 16.6398 69.508 15.4587 77.1812 14.7574C84.9257 14.0561 92.6703 13.7977 100.415 13.687C102.306 13.65 104.234 13.6131 106.125 13.6131C107.267 13.6131 107.267 11.7676 106.125 11.7676C98.0237 11.8783 89.9579 11.989 81.8922 12.5427C73.8621 13.0964 65.8321 14.0561 57.9805 15.8647C50.2359 17.6364 42.6341 20.294 35.5677 24.022C32.4271 25.683 29.4292 27.8239 26.9666 30.4815C24.6468 32.9914 22.7553 36.0919 22.327 39.5985C21.8988 43.1419 23.1836 46.6485 25.5034 49.2323C28.0016 52.0006 31.4635 53.6616 35.0324 54.3998C39.1723 55.2857 43.4907 55.2118 47.702 55.0642C51.8776 54.9166 56.1603 54.4367 60.0861 52.8126C63.2981 51.4838 66.2247 49.3799 68.366 46.5008C70.5074 43.6218 71.5423 40.0045 71.1498 36.3872C70.7572 32.733 69.1512 29.3372 66.8671 26.5689C64.4402 23.5791 61.1925 21.4752 57.7306 19.9618C54.126 18.4116 50.3073 17.4888 46.4529 16.8244C42.1702 16.0862 37.8518 15.6063 33.4977 15.348C24.7539 14.8681 15.9744 15.4218 7.33762 16.972C5.23196 17.3411 3.12629 17.7841 1.05632 18.3008C-0.157109 18.633 0.306862 20.4417 1.44891 20.1464Z" fill="#1E1E1E"/>
<path d="M93.6339 2.53905C95.7396 4.56916 97.8809 6.48853 100.094 8.37099C101.2 9.29377 102.306 10.2165 103.448 11.1024C104.019 11.5453 104.59 12.0252 105.197 12.4681C105.59 12.7634 106.089 13.0956 106.268 13.5754C106.411 13.2432 106.553 12.8741 106.66 12.5419C101.735 14.8673 96.846 17.2296 91.9209 19.555C91.4926 19.7765 91.3855 20.404 91.5996 20.81C91.8495 21.2899 92.3848 21.3637 92.8131 21.1422C97.7382 18.8168 102.628 16.4545 107.553 14.1291C107.91 13.9815 108.088 13.4278 107.945 13.0956C107.517 11.693 106.054 10.9179 104.983 10.0689C103.841 9.18304 102.699 8.22335 101.593 7.30057C99.2728 5.34429 97.0601 3.31419 94.8831 1.24717C94.0265 0.435126 92.7774 1.72701 93.6339 2.53905Z" fill="#1E1E1E"/>
</svg>
