<svg width="45" height="44" viewBox="0 0 45 44" fill="none" xmlns="http://www.w3.org/2000/svg">
<circle cx="22.873" cy="22" r="22" fill="white"/>
<g clip-path="url(#clip0_1_324)">
<path d="M16.873 25C17.973 25 18.873 25.9 18.873 27C18.873 28.1 17.973 29 16.873 29C15.773 29 14.873 28.1 14.873 27C14.873 25.9 15.773 25 16.873 25ZM16.873 23C14.673 23 12.873 24.8 12.873 27C12.873 29.2 14.673 31 16.873 31C19.073 31 20.873 29.2 20.873 27C20.873 24.8 19.073 23 16.873 23ZM22.873 15C23.973 15 24.873 15.9 24.873 17C24.873 18.1 23.973 19 22.873 19C21.773 19 20.873 18.1 20.873 17C20.873 15.9 21.773 15 22.873 15ZM22.873 13C20.673 13 18.873 14.8 18.873 17C18.873 19.2 20.673 21 22.873 21C25.073 21 26.873 19.2 26.873 17C26.873 14.8 25.073 13 22.873 13ZM28.873 25C29.973 25 30.873 25.9 30.873 27C30.873 28.1 29.973 29 28.873 29C27.773 29 26.873 28.1 26.873 27C26.873 25.9 27.773 25 28.873 25ZM28.873 23C26.673 23 24.873 24.8 24.873 27C24.873 29.2 26.673 31 28.873 31C31.073 31 32.873 29.2 32.873 27C32.873 24.8 31.073 23 28.873 23Z" fill="#2F65D5"/>
</g>
<defs>
<clipPath id="clip0_1_324">
<rect width="24" height="24" fill="white" transform="translate(10.873 10)"/>
</clipPath>
</defs>
</svg>
