<svg width="45" height="44" viewBox="0 0 45 44" fill="none" xmlns="http://www.w3.org/2000/svg">
<circle cx="22.873" cy="22" r="22" fill="white"/>
<g clip-path="url(#clip0_1_319)">
<path d="M13.873 16.0002H31.873V21.0002H33.873V16.0002C33.873 14.9002 32.973 14.0002 31.873 14.0002H13.873C12.773 14.0002 11.873 14.9002 11.873 16.0002V28.0002C11.873 29.1002 12.773 30.0002 13.873 30.0002H22.873V28.0002H13.873V16.0002Z" fill="#2F65D5"/>
<path d="M25.873 22.0002L19.873 18.0002V26.0002L25.873 22.0002Z" fill="#2F65D5"/>
<path d="M33.583 28.4302C33.613 28.1402 33.623 27.8502 33.593 27.5702L34.663 26.7202C34.763 26.6402 34.783 26.5102 34.723 26.4002L33.693 24.6102C33.633 24.5002 33.503 24.4602 33.383 24.5002L32.103 25.0002C31.873 24.8302 31.623 24.6902 31.353 24.5802L31.153 23.2202C31.133 23.0902 31.033 23.0002 30.903 23.0002H28.833C28.713 23.0002 28.603 23.0902 28.583 23.2102L28.383 24.5702C28.123 24.6802 27.873 24.8302 27.643 24.9902L26.363 24.4902C26.243 24.4402 26.113 24.4902 26.053 24.6002L25.023 26.3902C24.963 26.5002 24.983 26.6302 25.083 26.7102L26.153 27.5702C26.123 27.8602 26.113 28.1502 26.143 28.4302L25.073 29.2802C24.973 29.3602 24.953 29.4902 25.013 29.6002L26.043 31.3902C26.103 31.5002 26.233 31.5402 26.353 31.5002L27.623 31.0002C27.853 31.1702 28.103 31.3102 28.373 31.4202L28.573 32.7802C28.593 32.9002 28.693 32.9902 28.823 32.9902H30.893C31.013 32.9902 31.123 32.9002 31.143 32.7802L31.343 31.4202C31.603 31.3102 31.853 31.1602 32.083 31.0002L33.363 31.5002C33.483 31.5502 33.613 31.5002 33.673 31.3902L34.703 29.6002C34.763 29.4902 34.743 29.3602 34.643 29.2802L33.583 28.4302ZM29.873 29.5002C29.043 29.5002 28.373 28.8302 28.373 28.0002C28.373 27.1702 29.043 26.5002 29.873 26.5002C30.703 26.5002 31.373 27.1702 31.373 28.0002C31.373 28.8302 30.703 29.5002 29.873 29.5002Z" fill="#2F65D5"/>
</g>
<defs>
<clipPath id="clip0_1_319">
<rect width="24" height="24" fill="white" transform="translate(10.873 10.0002)"/>
</clipPath>
</defs>
</svg>
