<svg width="45" height="44" viewBox="0 0 45 44" fill="none" xmlns="http://www.w3.org/2000/svg">
<circle cx="22.873" cy="22" r="22" fill="white"/>
<g clip-path="url(#clip0_1_329)">
<path d="M31.873 22.22C31.873 16.73 27.613 13 22.873 13C18.183 13 13.873 16.65 13.873 22.28C13.273 22.62 12.873 23.26 12.873 24V26C12.873 27.1 13.773 28 14.873 28H15.873V21.9C15.873 18.03 19.003 14.9 22.873 14.9C26.743 14.9 29.873 18.03 29.873 21.9V29H21.873V31H29.873C30.973 31 31.873 30.1 31.873 29V27.78C32.463 27.47 32.873 26.86 32.873 26.14V23.84C32.873 23.14 32.463 22.53 31.873 22.22Z" fill="#2F65D5"/>
<path d="M19.873 24C20.4253 24 20.873 23.5523 20.873 23C20.873 22.4477 20.4253 22 19.873 22C19.3208 22 18.873 22.4477 18.873 23C18.873 23.5523 19.3208 24 19.873 24Z" fill="#2F65D5"/>
<path d="M25.873 24C26.4253 24 26.873 23.5523 26.873 23C26.873 22.4477 26.4253 22 25.873 22C25.3208 22 24.873 22.4477 24.873 23C24.873 23.5523 25.3208 24 25.873 24Z" fill="#2F65D5"/>
<path d="M28.873 21.03C28.393 18.18 25.913 16 22.923 16C19.893 16 16.633 18.51 16.893 22.45C19.363 21.44 21.223 19.24 21.753 16.56C23.063 19.19 25.753 21 28.873 21.03Z" fill="#2F65D5"/>
</g>
<defs>
<clipPath id="clip0_1_329">
<rect width="24" height="24" fill="white" transform="translate(10.873 10)"/>
</clipPath>
</defs>
</svg>
