<svg width="45" height="44" viewBox="0 0 45 44" fill="none" xmlns="http://www.w3.org/2000/svg">
<circle cx="22.873" cy="22" r="22" fill="white"/>
<g clip-path="url(#clip0_1_334)">
<path d="M19 20.1855H16V17.1855H14V20.1855H11V22.1855H14V25.1855H16V22.1855H19V20.1855ZM29 21.1855C30.66 21.1855 31.99 19.8455 31.99 18.1855C31.99 16.5255 30.66 15.1855 29 15.1855C28.68 15.1855 28.37 15.2355 28.09 15.3255C28.66 16.1355 28.99 17.1155 28.99 18.1855C28.99 19.2555 28.65 20.2255 28.09 21.0455C28.37 21.1355 28.68 21.1855 29 21.1855ZM24 21.1855C25.66 21.1855 26.99 19.8455 26.99 18.1855C26.99 16.5255 25.66 15.1855 24 15.1855C22.34 15.1855 21 16.5255 21 18.1855C21 19.8455 22.34 21.1855 24 21.1855ZM30.62 23.3455C31.45 24.0755 32 25.0055 32 26.1855V28.1855H35V26.1855C35 24.6455 32.63 23.6955 30.62 23.3455ZM24 23.1855C22 23.1855 18 24.1855 18 26.1855V28.1855H30V26.1855C30 24.1855 26 23.1855 24 23.1855Z" fill="#2F65D5"/>
</g>
<defs>
<clipPath id="clip0_1_334">
<rect width="24" height="24" fill="white" transform="translate(11 10.1855)"/>
</clipPath>
</defs>
</svg>
