<svg width="25" height="25" viewBox="0 0 25 25" fill="none" xmlns="http://www.w3.org/2000/svg">
<path d="M12.5 8.31592C11.61 8.31592 10.74 8.57984 9.99993 9.07431C9.25991 9.56877 8.68314 10.2716 8.34254 11.0938C8.00195 11.9161 7.91283 12.8209 8.08647 13.6938C8.2601 14.5667 8.68868 15.3686 9.31802 15.9979C9.94736 16.6272 10.7492 17.0558 11.6221 17.2295C12.495 17.4031 13.3998 17.314 14.2221 16.9734C15.0443 16.6328 15.7471 16.056 16.2416 15.316C16.7361 14.576 17 13.7059 17 12.8159C17 11.6224 16.5259 10.4779 15.682 9.63394C14.8381 8.79002 13.6935 8.31592 12.5 8.31592ZM12.5 15.8159C11.9067 15.8159 11.3266 15.64 10.8333 15.3103C10.3399 14.9807 9.95542 14.5121 9.72836 13.964C9.5013 13.4158 9.44189 12.8126 9.55764 12.2306C9.6734 11.6487 9.95912 11.1142 10.3787 10.6946C10.7982 10.275 11.3328 9.98932 11.9147 9.87356C12.4967 9.75781 13.0999 9.81722 13.6481 10.0443C14.1962 10.2713 14.6648 10.6559 14.9944 11.1492C15.3241 11.6426 15.5 12.2226 15.5 12.8159C15.4975 13.6108 15.1807 14.3724 14.6186 14.9345C14.0565 15.4966 13.2949 15.8134 12.5 15.8159ZM16.625 3.44092H8.375C6.98261 3.44092 5.64726 3.99404 4.66269 4.97861C3.67812 5.96317 3.125 7.29853 3.125 8.69092V16.9409C3.125 18.3333 3.67812 19.6687 4.66269 20.6532C5.64726 21.6378 6.98261 22.1909 8.375 22.1909H16.625C18.0174 22.1909 19.3527 21.6378 20.3373 20.6532C21.3219 19.6687 21.875 18.3333 21.875 16.9409V8.69092C21.875 7.29853 21.3219 5.96317 20.3373 4.97861C19.3527 3.99404 18.0174 3.44092 16.625 3.44092ZM20.375 16.9409C20.375 17.4334 20.278 17.921 20.0895 18.376C19.9011 18.831 19.6249 19.2443 19.2766 19.5926C18.9284 19.9408 18.515 20.217 18.0601 20.4055C17.6051 20.5939 17.1175 20.6909 16.625 20.6909H8.375C7.88254 20.6909 7.39491 20.5939 6.93994 20.4055C6.48497 20.217 6.07157 19.9408 5.72335 19.5926C5.37513 19.2443 5.09891 18.831 4.91045 18.376C4.722 17.921 4.625 17.4334 4.625 16.9409V8.69092C4.625 7.69636 5.02009 6.74253 5.72335 6.03927C6.42661 5.33601 7.38044 4.94092 8.375 4.94092H16.625C17.1175 4.94092 17.6051 5.03791 18.0601 5.22637C18.515 5.41482 18.9284 5.69105 19.2766 6.03927C19.6249 6.38749 19.9011 6.80088 20.0895 7.25586C20.278 7.71083 20.375 8.19846 20.375 8.69092V16.9409ZM18.5 7.94092C18.5 8.16342 18.434 8.38093 18.3104 8.56593C18.1868 8.75094 18.0111 8.89513 17.8055 8.98028C17.6 9.06543 17.3738 9.08771 17.1555 9.0443C16.9373 9.00089 16.7368 8.89375 16.5795 8.73641C16.4222 8.57908 16.315 8.37862 16.2716 8.16039C16.2282 7.94217 16.2505 7.71597 16.3356 7.5104C16.4208 7.30483 16.565 7.12913 16.75 7.00551C16.935 6.8819 17.1525 6.81592 17.375 6.81592C17.6734 6.81592 17.9595 6.93444 18.1705 7.14542C18.3815 7.3564 18.5 7.64255 18.5 7.94092Z" fill="white"/>
</svg>
