<svg width="25" height="25" viewBox="0 0 25 25" fill="none" xmlns="http://www.w3.org/2000/svg">
<path d="M22.459 14.5348V21.9138H18.181V15.0288C18.181 13.2988 17.562 12.1188 16.014 12.1188C14.832 12.1188 14.128 12.9148 13.819 13.6838C13.706 13.9588 13.677 14.3418 13.677 14.7268V21.9138H9.397C9.397 21.9138 9.455 10.2538 9.397 9.0448H13.677V10.8688L13.649 10.9108H13.677V10.8688C14.245 9.9938 15.26 8.7428 17.533 8.7428C20.348 8.7428 22.459 10.5828 22.459 14.5348ZM4.921 2.8418C3.458 2.8418 2.5 3.8018 2.5 5.0648C2.5 6.2998 3.43 7.2888 4.865 7.2888H4.893C6.386 7.2888 7.313 6.2998 7.313 5.0648C7.287 3.8018 6.387 2.8418 4.922 2.8418H4.921ZM2.754 21.9138H7.032V9.0448H2.754V21.9138Z" fill="white"/>
</svg>
