<svg width="262" height="13" viewBox="0 0 262 13" fill="none" xmlns="http://www.w3.org/2000/svg">
<path fill-rule="evenodd" clip-rule="evenodd" d="M111.46 1.94076C99.2238 2.30799 87.1313 2.75954 75.3392 3.2532C58.6461 3.95155 41.9595 4.67398 25.3735 5.81782C20.1525 6.17904 14.8507 6.40779 9.66238 6.85931C6.4055 7.14226 2.08697 7.54556 1.52021 7.62984C1.22378 7.678 1.09445 7.75031 1.05266 7.77439C0.758841 7.94296 0.812453 8.10544 0.9783 8.23186C1.0449 8.28605 1.21331 8.41854 1.68082 8.4366C32.9463 9.67075 64.9169 7.26266 96.2203 7.00981C150.506 6.57636 206.437 8.29815 260.291 12.0548C260.762 12.0849 261.219 11.9343 261.284 11.7116C261.362 11.4948 261.023 11.2841 260.553 11.254C206.607 7.49139 150.584 5.76358 96.1941 6.20305C67.0207 6.43784 37.2714 8.55098 8.05744 7.82856C8.72867 7.76835 9.38687 7.70813 9.98757 7.65395C15.155 7.20243 20.4346 6.9797 25.6347 6.61848C42.1854 5.47464 58.8381 4.75222 75.509 4.05989C96.1942 3.19298 117.78 2.44646 139.536 2.09729C147.319 2.15147 155.076 2.20568 162.833 2.2719C179.614 2.41639 196.473 2.8378 213.214 3.40371C218.255 3.57829 223.296 3.75888 228.336 3.91541C230.008 3.96959 234.317 4.12609 234.918 4.11405C235.663 4.10201 235.806 3.81307 235.819 3.7649C235.858 3.65654 235.832 3.50603 235.467 3.3796C235.427 3.36154 235.192 3.3013 234.67 3.26518C204.23 1.13402 171.726 0.778881 139.563 1.2906C105.636 1.06785 71.5783 0.971484 37.7376 0.869141C37.2531 0.869141 36.8574 1.04977 36.8535 1.27252C36.8509 1.49527 37.2413 1.67591 37.7258 1.68193C62.2294 1.75417 86.8571 1.82637 111.46 1.94076Z" fill="#1E1E1E"/>
</svg>
